<svg width="434" height="421" viewBox="0 0 434 421" fill="none" xmlns="http://www.w3.org/2000/svg">
<g clip-path="url(#clip0_109_2)">
<path d="M227.8 392.672C225.8 392.872 223.9 392.072 222.6 390.572L102.4 280.372C99.2 277.872 98.7 273.272 101.2 270.072C101.4 269.872 101.6 269.572 101.8 269.372C104.3 266.172 108.9 265.672 112.1 268.172C112.3 268.372 112.6 268.572 112.8 268.772L227.2 373.772L386.1 214.572C406.4 194.372 417.8 166.972 418 138.272C417.8 78.572 369.2 30.272 309.5 30.472C281 30.572 253.8 41.872 233.6 61.972H233.1C230.2 65.072 225.3 65.372 222.1 62.472H221.6C180.1 20.372 112.3 19.872 70.1 61.372C69.7 61.772 69.4 62.072 69 62.472C44.1 87.372 33 122.872 39.2 157.572C39.8 161.772 37.1 165.672 32.9 166.472C28.6 167.172 24.5 164.372 23.5 160.172C11.3 92.872 56 28.472 123.3 16.372C160.8 9.57199 199.3 20.472 227.8 45.872C280.1 1.77199 361.2 5.47198 405.3 57.672C445.9 105.872 440.9 179.772 397.6 225.572L233 390.572C231.6 392.072 229.7 392.772 227.8 392.672Z" fill="#FF4F5A"/>
<path d="M210.5 286.072H209.5C206.7 285.872 204.2 283.972 203.2 281.372L145.7 142.972L116.4 222.872C115.3 225.972 112.4 228.072 109.1 228.072H7.8C3.5 228.072 0 224.572 0 220.272C0 215.972 3.5 212.472 7.8 212.472H103.4L137.9 118.972C138.8 115.972 141.5 113.872 144.7 113.772C148 113.672 151.1 115.472 152.5 118.472L212.6 263.172L252.8 215.572C254.1 213.572 256.2 212.472 258.5 212.472H289.8C294.1 212.472 297.6 215.972 297.6 220.272C297.6 224.572 294.1 228.072 289.8 228.072H262.1L216.1 283.472C214.8 285.072 212.7 286.072 210.5 286.072Z" fill="#FFDA52"/>
</g>
<defs>
<clipPath id="clip0_109_2">
<rect width="433.092" height="433.092" fill="white" transform="translate(0 -13)"/>
</clipPath>
</defs>
</svg>
