<svg width="270" height="270" viewBox="0 0 270 270" fill="none" xmlns="http://www.w3.org/2000/svg">
<path d="M130.296 249.983C129.129 250.094 128.022 249.65 127.264 248.817L57.1759 187.646C55.31 186.258 55.0184 183.705 56.4761 181.928C56.5928 181.817 56.7094 181.651 56.826 181.54C58.2837 179.764 60.966 179.486 62.8318 180.874C62.9485 180.985 63.1234 181.096 63.24 181.207L129.946 239.492L222.599 151.121C234.436 139.908 241.083 124.698 241.2 108.767C241.083 75.6275 212.745 48.8164 177.934 48.9274C161.316 48.9829 145.456 55.2555 133.678 66.4129H133.386C131.695 68.1337 128.838 68.3002 126.972 66.6905H126.68C102.482 43.3209 62.9485 43.0434 38.342 66.0799C38.1087 66.3019 37.9338 66.4684 37.7006 66.6905C23.1816 80.5124 16.7092 100.218 20.3244 119.48C20.6743 121.812 19.0999 123.976 16.6509 124.42C14.1436 124.809 11.753 123.255 11.1699 120.923C4.05614 83.5654 30.1204 47.8172 69.3625 41.1005C91.2284 37.3259 113.678 43.3764 130.296 57.4759C160.791 32.9961 208.08 35.05 233.795 64.026C257.468 90.7816 254.553 131.803 229.305 157.227L133.328 248.817C132.511 249.65 131.404 250.039 130.296 249.983Z" fill="#FFDA52" stroke="#FFDA52"/>
<path d="M129.013 182.621L129.001 182.59L128.988 182.559L93.1416 96.2774L90.6877 90.3711L88.4857 96.3759L70.2194 146.187L70.2149 146.2L70.2105 146.212C69.8701 147.172 68.989 147.79 68.0156 147.79H4.86271C3.5627 147.79 2.5 146.727 2.5 145.427C2.5 144.127 3.5627 143.065 4.86271 143.065H64.4621H66.2044L66.8075 141.43L88.3156 83.1398L88.3425 83.0671L88.3648 82.9928C88.6167 82.1532 89.3662 81.5607 90.2864 81.5314C91.3859 81.4985 92.3515 82.0882 92.7876 82.9799L130.231 173.131L131.804 176.918L134.45 173.785L159.512 144.11L159.613 143.991L159.698 143.86C160.04 143.333 160.555 143.065 161.155 143.065H180.668C181.968 143.065 183.031 144.127 183.031 145.427C183.031 146.727 181.968 147.79 180.668 147.79H163.399H162.226L161.476 148.693L132.799 183.231L132.79 183.241L132.782 183.251C132.462 183.645 131.875 183.949 131.231 183.949H130.716C129.986 183.868 129.288 183.337 129.013 182.621Z" fill="#FFEEAD" stroke="#FFEEAD" stroke-width="5"/>
</svg>
