<svg id="Layer_1" enable-background="new 0 0 509.514 509.514" height="512" viewBox="0 0 509.514 509.514" width="512" xmlns="http://www.w3.org/2000/svg"><g><g id="XMLID_7120_"><path d="m400.499 509.514c-13.403 0-24.268-10.865-24.268-24.268v-193.976c0-13.403 10.865-24.268 24.268-24.268s24.271 10.865 24.271 24.268v193.977c.001 13.402-10.868 24.267-24.271 24.267z" fill="#55696e"/></g><g id="XMLID_7125_"><path d="m341.485 509.514c-13.403 0-24.121-10.865-24.121-24.268v-193.976c0-13.403 10.718-24.268 24.121-24.268s24.268 10.865 24.268 24.268v193.977c0 13.402-10.865 24.267-24.268 24.267z" fill="#748488"/></g><path d="m452.765 115.265c-5.107-11.151-15.9-18.079-28.166-18.079h-34.453c.349 10.446-9.359 19.307-19.495 19.307-10.863 0-18.916-8.828-19.476-19.307h-67.908v40.446h34.355l-.259 153.36h107.407l.004-115.6 23.283-26.992c8.012-9.286 9.816-21.983 4.708-33.135z" fill="#ffda52"/><path d="m390.147 97.187h-38.971v5.242c0 10.783 8.741 19.524 19.525 19.524 10.901 0 19.69-8.926 19.522-19.825z" fill="#ba6746"/><path d="m250.322 182.271v109.42c.055 10.897 9.197 20.044 20.618 20.044 11.126-.056 20.1-9.121 20.044-20.246v-109.218l-21.196-12.106z" fill="#ffb69e"/><g><path d="m113.188 509.514c-5.523 0-10-4.477-10-10v-230.525c0-8.08-6.573-14.653-14.653-14.653s-14.653 6.573-14.653 14.653v31.634c0 5.523-4.477 10-10 10s-10-4.477-10-10v-31.634c0-19.108 15.545-34.653 34.653-34.653 19.107 0 34.653 15.545 34.653 34.653v230.526c0 5.522-4.477 9.999-10 9.999z" fill="#965028"/></g><path d="m97.641 173.176 8.096-6.763-8.072-21.993-18.238-8.564-16.512 13.832c-5.506 4.6-8.15 11.782-6.941 18.854l14.814 86.651c1.876 10.974 12.296 18.338 23.252 16.462 10.967-1.875 18.337-12.285 16.462-23.252z" fill="#ffb69e"/><path d="m283.268 97.187h-85.663c-11.169 0-20.223 9.054-20.223 20.223s9.054 20.223 20.223 20.223h85.663l7.716-23.292z" fill="#ba6746"/><circle cx="370.719" cy="41.914" fill="#ba6746" r="41.913"/><g id="XMLID_7118_"><path d="m217.783 509.514c-13.351 0-24.174-10.823-24.174-24.174v-196.228c0-13.351 10.823-24.174 24.174-24.174s24.121 10.823 24.121 24.174v196.228c0 13.351-10.77 24.174-24.121 24.174z" fill="#414b82"/></g><g id="XMLID_7114_"><path d="m158.997 509.514c-13.351 0-24.179-10.823-24.179-24.174v-195.614c0-13.351 10.828-24.174 24.179-24.174s24.174 10.823 24.174 24.174v195.614c0 13.351-10.823 24.174-24.174 24.174z" fill="#5f6e9b"/></g><path d="m242.568 96.055h-108.15c-4.722 0-9.293 1.658-12.916 4.686l-42.074 35.116 26.31 30.556 29.08-24.293v146.992h107.086v-152.767c4.051 0 8.398 3.296 8.418 7.346v38.58h40.662v-38.782c-.131-26.155-22.261-47.434-48.416-47.434z" fill="#e64937"/><ellipse cx="188.662" cy="69.294" fill="#ffb69e" rx="41.751" ry="41.752" transform="matrix(.099 -.995 .995 .099 101.115 250.21)"/><path d="m226.473 84.147h-8.488v-5.628c0-4.091-3.317-7.408-7.408-7.408h-44.911c-4.091 0-7.408 3.317-7.408 7.408v5.628h-7.408c-2.176 0-3.941 1.764-3.941 3.941v5.864c0 2.176 1.764 3.941 3.941 3.941h7.408v5.628c0 4.091 3.317 7.408 7.408 7.408h44.91c4.091 0 7.408-3.317 7.408-7.408v-5.629h8.488c2.176 0 3.941-1.764 3.941-3.941v-5.864c.001-2.176-1.764-3.94-3.94-3.94z" fill="#55c7a6"/><path d="m408.53 57.421h-8.488v-5.628c0-4.091-3.317-7.408-7.408-7.408h-44.911c-4.091 0-7.408 3.317-7.408 7.408v5.628h-7.408c-2.176 0-3.941 1.764-3.941 3.941v5.864c0 2.176 1.764 3.941 3.941 3.941h7.408v5.628c0 4.091 3.317 7.408 7.408 7.408h44.91c4.091 0 7.408-3.317 7.408-7.408v-5.629h8.488c2.176 0 3.941-1.764 3.941-3.941v-5.864c.001-2.176-1.763-3.94-3.94-3.94z" fill="#55c7a6"/><path d="m383.385 161.452-9.616 11.148-76.815 18.281c-10.862 2.6-17.56 13.514-14.96 24.376 2.595 10.839 13.487 17.564 24.376 14.96l83.16-19.8c4.125-.988 7.835-3.247 10.605-6.459l15.208-17.63z" fill="#ba6746"/></g></svg>