<svg width="490" height="250" viewBox="0 0 490 250" fill="none" xmlns="http://www.w3.org/2000/svg">
<g filter="url(#filter0_i_3_17)">
<path d="M83.16 67.86L65.52 99.36H47.88L30.24 67.86V117H7.56V28.8H31.5L56.7 75.42L81.9 28.8H105.84V117H83.16V67.86ZM145.579 64.71C142.219 64.71 140.539 66.39 140.539 69.75V76.68H161.959V69.75C161.959 66.39 160.279 64.71 156.919 64.71H145.579ZM181.489 115.74C165.277 117.42 150.577 118.26 137.389 118.26C131.677 118.26 127.099 116.538 123.655 113.094C120.211 109.65 118.489 105.072 118.489 99.36V69.12C118.489 62.82 120.253 57.906 123.781 54.378C127.393 50.766 132.349 48.96 138.649 48.96H163.849C170.149 48.96 175.063 50.766 178.591 54.378C182.203 57.906 184.009 62.82 184.009 69.12V92.43H140.539V97.47C140.539 98.73 140.959 99.78 141.799 100.62C142.639 101.46 143.689 101.88 144.949 101.88C153.265 101.88 165.445 101.25 181.489 99.99V115.74ZM226.17 99.99C230.622 99.99 235.662 99.15 241.29 97.47V50.22H263.34V117H243.81L242.55 110.7C238.602 113.304 234.528 115.236 230.328 116.496C226.212 117.672 222.726 118.26 219.87 118.26H214.2C208.488 118.26 203.91 116.538 200.466 113.094C197.022 109.65 195.3 105.072 195.3 99.36V50.22H217.35V95.58C217.35 96.84 217.77 97.89 218.61 98.73C219.45 99.57 220.5 99.99 221.76 99.99H226.17Z" fill="#F0EEEF"/>
<path d="M52.73 188.54L74.15 126.8H98.72L65.33 215H40.13L6.74 126.8H31.31L52.73 188.54ZM125.771 162.71C122.411 162.71 120.731 164.39 120.731 167.75V174.68H142.151V167.75C142.151 164.39 140.471 162.71 137.111 162.71H125.771ZM161.681 213.74C145.469 215.42 130.769 216.26 117.581 216.26C111.869 216.26 107.291 214.538 103.847 211.094C100.403 207.65 98.6806 203.072 98.6806 197.36V167.12C98.6806 160.82 100.445 155.906 103.973 152.378C107.585 148.766 112.541 146.96 118.841 146.96H144.041C150.341 146.96 155.255 148.766 158.783 152.378C162.395 155.906 164.201 160.82 164.201 167.12V190.43H120.731V195.47C120.731 196.73 121.151 197.78 121.991 198.62C122.831 199.46 123.881 199.88 125.141 199.88C133.457 199.88 145.637 199.25 161.681 197.99V213.74ZM209.511 215C203.883 215.84 198.507 216.26 193.383 216.26C188.343 216.26 184.101 214.538 180.657 211.094C177.213 207.65 175.491 203.072 175.491 197.36V126.8H197.541V194.21C197.541 195.47 197.961 196.52 198.801 197.36C199.641 198.2 200.691 198.62 201.951 198.62H209.511V215ZM240.362 149.48C248.51 147.8 255.65 146.96 261.782 146.96H267.452C273.164 146.96 277.742 148.682 281.186 152.126C284.63 155.57 286.352 160.148 286.352 165.86V215H264.302V168.38C264.302 167.12 263.882 166.07 263.042 165.23C262.202 164.39 261.152 163.97 259.892 163.97H255.482C252.29 163.97 249.35 164.138 246.662 164.474C244.058 164.81 241.958 165.062 240.362 165.23V215H218.312V126.8H240.362V149.48ZM365.717 196.1C365.717 202.4 363.911 207.356 360.299 210.968C356.771 214.496 351.857 216.26 345.557 216.26H316.577C310.277 216.26 305.321 214.496 301.709 210.968C298.181 207.356 296.417 202.4 296.417 196.1V167.12C296.417 160.82 298.181 155.906 301.709 152.378C305.321 148.766 310.277 146.96 316.577 146.96H345.557C351.857 146.96 356.771 148.766 360.299 152.378C363.911 155.906 365.717 160.82 365.717 167.12V196.1ZM343.667 169.01C343.667 165.65 341.987 163.97 338.627 163.97H323.507C320.147 163.97 318.467 165.65 318.467 169.01V194.21C318.467 197.57 320.147 199.25 323.507 199.25H338.627C341.987 199.25 343.667 197.57 343.667 194.21V169.01Z" fill="#F0EEEF"/>
<path d="M368.92 205.4H380.44V215H368.92V205.4ZM404.455 189.72C402.194 189.72 399.634 190.147 396.775 191V215H385.575V181.08H395.495L396.135 184.28C398.14 182.957 400.188 181.997 402.279 181.4C404.412 180.76 406.204 180.44 407.655 180.44H410.535C413.436 180.44 415.762 181.315 417.511 183.064C419.26 184.813 420.135 187.139 420.135 190.04V215H408.935V191.96C408.935 191.32 408.722 190.787 408.295 190.36C407.868 189.933 407.335 189.72 406.695 189.72H404.455ZM439.008 188.44C437.301 188.44 436.448 189.293 436.448 191V194.52H447.328V191C447.328 189.293 446.474 188.44 444.768 188.44H439.008ZM457.248 214.36C449.013 215.213 441.546 215.64 434.848 215.64C431.946 215.64 429.621 214.765 427.872 213.016C426.122 211.267 425.248 208.941 425.248 206.04V190.68C425.248 187.48 426.144 184.984 427.936 183.192C429.77 181.357 432.288 180.44 435.488 180.44H448.288C451.488 180.44 453.984 181.357 455.776 183.192C457.61 184.984 458.528 187.48 458.528 190.68V202.52H436.448V205.08C436.448 205.72 436.661 206.253 437.088 206.68C437.514 207.107 438.048 207.32 438.688 207.32C442.912 207.32 449.098 207 457.248 206.36V214.36ZM487.943 215C483.804 215.427 479.751 215.64 475.783 215.64C472.881 215.64 470.556 214.765 468.807 213.016C467.057 211.267 466.183 208.941 466.183 206.04V189.72H462.343V181.08H466.183L467.463 173.4H477.383V181.08H485.383V189.72H477.383V204.44C477.383 205.08 477.596 205.613 478.023 206.04C478.449 206.467 478.983 206.68 479.623 206.68H487.943V215Z" fill="#F0EEEF"/>
</g>
<defs>
<filter id="filter0_i_3_17" x="6.73999" y="28.8" width="484.203" height="190.46" filterUnits="userSpaceOnUse" color-interpolation-filters="sRGB">
<feFlood flood-opacity="0" result="BackgroundImageFix"/>
<feBlend mode="normal" in="SourceGraphic" in2="BackgroundImageFix" result="shape"/>
<feColorMatrix in="SourceAlpha" type="matrix" values="0 0 0 0 0 0 0 0 0 0 0 0 0 0 0 0 0 0 127 0" result="hardAlpha"/>
<feOffset dx="3" dy="5"/>
<feGaussianBlur stdDeviation="1.5"/>
<feComposite in2="hardAlpha" operator="arithmetic" k2="-1" k3="1"/>
<feColorMatrix type="matrix" values="0 0 0 0 0.109804 0 0 0 0 0.368627 0 0 0 0 0.329412 0 0 0 0.3 0"/>
<feBlend mode="normal" in2="shape" result="effect1_innerShadow_3_17"/>
</filter>
</defs>
</svg>
