<svg width="1391" height="288" viewBox="0 0 1391 288" fill="none" xmlns="http://www.w3.org/2000/svg">
<path d="M1151.77 262.224C1152.44 262.224 1152.99 262.464 1153.42 262.944C1153.9 263.424 1154.14 264 1154.14 264.672V267.552C1154.14 268.224 1153.9 268.8 1153.42 269.28C1152.99 269.76 1152.44 270 1151.77 270H1148.89C1148.22 270 1147.64 269.76 1147.16 269.28C1146.68 268.8 1146.44 268.224 1146.44 267.552V264.672C1146.44 264 1146.68 263.424 1147.16 262.944C1147.64 262.464 1148.22 262.224 1148.89 262.224H1151.77ZM1180.31 258.408C1181.42 258.408 1182.33 258.024 1183.05 257.256C1183.82 256.488 1184.2 255.576 1184.2 254.52H1195.79C1195.79 256.68 1195.39 258.696 1194.57 260.568C1193.75 262.44 1192.65 264.072 1191.26 265.464C1189.87 266.856 1188.23 267.96 1186.36 268.776C1184.49 269.592 1182.47 270 1180.31 270H1172.54C1170.38 270 1168.36 269.592 1166.49 268.776C1164.62 267.96 1162.99 266.856 1161.59 265.464C1160.2 264.072 1159.1 262.44 1158.28 260.568C1157.47 258.696 1157.06 256.68 1157.06 254.52V235.08C1157.06 232.92 1157.47 230.904 1158.28 229.032C1159.1 227.16 1160.2 225.528 1161.59 224.136C1162.99 222.744 1164.62 221.64 1166.49 220.824C1168.36 220.008 1170.38 219.6 1172.54 219.6H1180.31C1182.47 219.6 1184.49 220.008 1186.36 220.824C1188.23 221.64 1189.87 222.744 1191.26 224.136C1192.65 225.528 1193.75 227.16 1194.57 229.032C1195.39 230.904 1195.79 232.92 1195.79 235.08H1184.2C1184.2 234.024 1183.82 233.136 1183.05 232.416C1182.33 231.648 1181.42 231.264 1180.31 231.264H1172.54C1171.43 231.264 1170.5 231.648 1169.73 232.416C1169.01 233.136 1168.65 234.024 1168.65 235.08V254.52C1168.65 255.576 1169.01 256.488 1169.73 257.256C1170.5 258.024 1171.43 258.408 1172.54 258.408H1180.31ZM1221.94 219.6C1224.1 219.6 1226.11 220.008 1227.99 220.824C1229.86 221.64 1231.49 222.744 1232.88 224.136C1234.27 225.528 1235.38 227.16 1236.19 229.032C1237.01 230.904 1237.42 232.92 1237.42 235.08V254.52C1237.42 256.68 1237.01 258.696 1236.19 260.568C1235.38 262.44 1234.27 264.072 1232.88 265.464C1231.49 266.856 1229.86 267.96 1227.99 268.776C1226.11 269.592 1224.1 270 1221.94 270H1214.16C1212 270 1209.99 269.592 1208.11 268.776C1206.24 267.96 1204.61 266.856 1203.22 265.464C1201.83 264.072 1200.72 262.44 1199.91 260.568C1199.09 258.696 1198.68 256.68 1198.68 254.52V235.08C1198.68 232.92 1199.09 230.904 1199.91 229.032C1200.72 227.16 1201.83 225.528 1203.22 224.136C1204.61 222.744 1206.24 221.64 1208.11 220.824C1209.99 220.008 1212 219.6 1214.16 219.6H1221.94ZM1225.83 235.08C1225.83 234.024 1225.44 233.136 1224.67 232.416C1223.95 231.648 1223.04 231.264 1221.94 231.264H1214.16C1213.06 231.264 1212.12 231.648 1211.35 232.416C1210.63 233.136 1210.27 234.024 1210.27 235.08V254.52C1210.27 255.576 1210.63 256.488 1211.35 257.256C1212.12 258.024 1213.06 258.408 1214.16 258.408H1221.94C1223.04 258.408 1223.95 258.024 1224.67 257.256C1225.44 256.488 1225.83 255.576 1225.83 254.52V235.08ZM1275.23 219.6C1277.39 219.6 1279.4 220.008 1281.28 220.824C1283.15 221.64 1284.78 222.744 1286.17 224.136C1287.56 225.528 1288.67 227.16 1289.48 229.032C1290.3 230.904 1290.71 232.92 1290.71 235.08V270H1279.12V235.08C1279.12 234.024 1278.73 233.136 1277.96 232.416C1277.24 231.648 1276.33 231.264 1275.23 231.264C1274.12 231.264 1273.19 231.648 1272.42 232.416C1271.7 233.136 1271.34 234.024 1271.34 235.08V270H1259.75V235.08C1259.75 234.024 1259.36 233.136 1258.6 232.416C1257.88 231.648 1256.96 231.264 1255.86 231.264C1254.76 231.264 1253.82 231.648 1253.05 232.416C1252.33 233.136 1251.97 234.024 1251.97 235.08V270H1240.31V235.08C1240.31 232.92 1240.72 230.904 1241.53 229.032C1242.35 227.16 1243.45 225.528 1244.84 224.136C1246.28 222.744 1247.94 221.64 1249.81 220.824C1251.68 220.008 1253.7 219.6 1255.86 219.6C1257.68 219.6 1259.41 219.912 1261.04 220.536C1262.72 221.112 1264.21 221.928 1265.51 222.984C1266.85 221.928 1268.34 221.112 1269.97 220.536C1271.65 219.912 1273.4 219.6 1275.23 219.6ZM1298.93 262.224C1299.6 262.224 1300.16 262.464 1300.59 262.944C1301.07 263.424 1301.31 264 1301.31 264.672V267.552C1301.31 268.224 1301.07 268.8 1300.59 269.28C1300.16 269.76 1299.6 270 1298.93 270H1296.05C1295.38 270 1294.8 269.76 1294.32 269.28C1293.84 268.8 1293.6 268.224 1293.6 267.552V264.672C1293.6 264 1293.84 263.424 1294.32 262.944C1294.8 262.464 1295.38 262.224 1296.05 262.224H1298.93ZM1342.96 235.08C1342.96 236.904 1342.65 238.656 1342.02 240.336C1341.45 241.968 1340.63 243.456 1339.57 244.8C1340.63 246.144 1341.45 247.656 1342.02 249.336C1342.65 250.968 1342.96 252.696 1342.96 254.52C1342.96 256.68 1342.55 258.696 1341.73 260.568C1340.92 262.44 1339.81 264.072 1338.42 265.464C1337.03 266.856 1335.4 267.96 1333.53 268.776C1331.65 269.592 1329.64 270 1327.48 270H1315.81H1304.22V219.6H1315.81H1327.48C1329.64 219.6 1331.65 220.008 1333.53 220.824C1335.4 221.64 1337.03 222.744 1338.42 224.136C1339.81 225.528 1340.92 227.16 1341.73 229.032C1342.55 230.904 1342.96 232.92 1342.96 235.08ZM1315.81 231.264V238.968H1327.48C1328.58 238.968 1329.49 238.608 1330.21 237.888C1330.98 237.12 1331.37 236.184 1331.37 235.08C1331.37 234.024 1330.98 233.136 1330.21 232.416C1329.49 231.648 1328.58 231.264 1327.48 231.264H1315.81ZM1327.48 258.408C1328.58 258.408 1329.49 258.024 1330.21 257.256C1330.98 256.488 1331.37 255.576 1331.37 254.52C1331.37 253.416 1330.98 252.504 1330.21 251.784C1329.49 251.016 1328.58 250.632 1327.48 250.632H1315.81V258.408H1327.48ZM1384.58 235.08C1384.58 236.904 1384.27 238.656 1383.65 240.336C1383.07 241.968 1382.25 243.456 1381.2 244.8C1382.25 246.144 1383.07 247.656 1383.65 249.336C1384.27 250.968 1384.58 252.696 1384.58 254.52V270H1372.99V254.52C1372.99 253.416 1372.61 252.504 1371.84 251.784C1371.12 251.016 1370.21 250.632 1369.1 250.632H1357.44V270H1345.85V219.6H1357.44H1369.1C1371.26 219.6 1373.28 220.008 1375.15 220.824C1377.02 221.64 1378.65 222.744 1380.05 224.136C1381.44 225.528 1382.54 227.16 1383.36 229.032C1384.17 230.904 1384.58 232.92 1384.58 235.08ZM1369.1 238.968C1370.21 238.968 1371.12 238.608 1371.84 237.888C1372.61 237.12 1372.99 236.184 1372.99 235.08C1372.99 234.024 1372.61 233.136 1371.84 232.416C1371.12 231.648 1370.21 231.264 1369.1 231.264H1357.44V238.968H1369.1Z" fill="white"/>
<path d="M145.44 14.4C154.08 14.4 162.144 16.032 169.632 19.296C177.12 22.56 183.648 26.976 189.216 32.544C194.784 38.112 199.2 44.64 202.464 52.128C205.728 59.616 207.36 67.68 207.36 76.32V216H160.992V76.32C160.992 72.096 159.456 68.544 156.384 65.664C153.504 62.592 149.856 61.056 145.44 61.056C141.024 61.056 137.28 62.592 134.208 65.664C131.328 68.544 129.888 72.096 129.888 76.32V216H83.52V76.32C83.52 72.096 81.984 68.544 78.912 65.664C76.032 62.592 72.384 61.056 67.968 61.056C63.552 61.056 59.808 62.592 56.736 65.664C53.856 68.544 52.416 72.096 52.416 76.32V216H5.76V76.32C5.76 67.68 7.392 59.616 10.656 52.128C13.92 44.64 18.336 38.112 23.904 32.544C29.664 26.976 36.288 22.56 43.776 19.296C51.264 16.032 59.328 14.4 67.968 14.4C75.264 14.4 82.176 15.648 88.704 18.144C95.424 20.448 101.376 23.712 106.56 27.936C111.936 23.712 117.888 20.448 124.416 18.144C131.136 15.648 138.144 14.4 145.44 14.4ZM280.868 61.056C276.452 61.056 272.708 62.592 269.636 65.664C266.756 68.544 265.316 72.096 265.316 76.32V91.872H373.892V138.528H265.316V154.08C265.316 158.304 266.756 161.952 269.636 165.024C272.708 168.096 276.452 169.632 280.868 169.632H373.892V216H280.868C272.228 216 264.164 214.368 256.676 211.104C249.188 207.84 242.66 203.424 237.092 197.856C231.524 192.288 227.108 185.76 223.844 178.272C220.58 170.784 218.948 162.72 218.948 154.08V76.32C218.948 67.68 220.58 59.616 223.844 52.128C227.108 44.64 231.524 38.112 237.092 32.544C242.66 26.976 249.188 22.56 256.676 19.296C264.164 16.032 272.228 14.4 280.868 14.4H373.892V61.056H280.868ZM540.392 154.08C540.392 162.72 538.76 170.784 535.496 178.272C532.232 185.76 527.816 192.288 522.248 197.856C516.68 203.424 510.152 207.84 502.664 211.104C495.176 214.368 487.112 216 478.472 216H447.368C438.728 216 430.664 214.368 423.176 211.104C415.688 207.84 409.16 203.424 403.592 197.856C398.024 192.288 393.608 185.76 390.344 178.272C387.08 170.784 385.448 162.72 385.448 154.08V14.4H431.816V154.08C431.816 158.304 433.256 161.952 436.136 165.024C439.208 168.096 442.952 169.632 447.368 169.632H478.472C482.888 169.632 486.536 168.096 489.416 165.024C492.488 161.952 494.024 158.304 494.024 154.08V14.4H540.392V154.08ZM718.461 14.4H764.829L710.973 216H710.397H664.317H663.741L609.885 14.4H656.253L687.357 130.176L718.461 14.4ZM838.305 61.056C833.889 61.056 830.145 62.592 827.073 65.664C824.193 68.544 822.753 72.096 822.753 76.32V91.872H931.329V138.528H822.753V154.08C822.753 158.304 824.193 161.952 827.073 165.024C830.145 168.096 833.889 169.632 838.305 169.632H931.329V216H838.305C829.665 216 821.601 214.368 814.113 211.104C806.625 207.84 800.097 203.424 794.529 197.856C788.961 192.288 784.545 185.76 781.281 178.272C778.017 170.784 776.385 162.72 776.385 154.08V76.32C776.385 67.68 778.017 59.616 781.281 52.128C784.545 44.64 788.961 38.112 794.529 32.544C800.097 26.976 806.625 22.56 814.113 19.296C821.601 16.032 829.665 14.4 838.305 14.4H931.329V61.056H838.305ZM1051.46 169.632V216H1004.81C996.165 216 988.101 214.368 980.613 211.104C973.125 207.84 966.597 203.424 961.029 197.856C955.461 192.288 951.045 185.76 947.781 178.272C944.517 170.784 942.885 162.72 942.885 154.08V14.4H989.541V154.08C989.541 158.304 990.981 161.952 993.861 165.024C996.933 168.096 1000.58 169.632 1004.81 169.632H1051.46ZM1171.55 14.4H1217.92V216H1171.55V138.528H1109.35V216H1062.98V14.4H1109.35V91.872H1171.55V14.4ZM1322.5 14.4C1331.14 14.4 1339.21 16.032 1346.69 19.296C1354.18 22.56 1360.71 26.976 1366.28 32.544C1371.85 38.112 1376.26 44.64 1379.53 52.128C1382.79 59.616 1384.42 67.68 1384.42 76.32V154.08C1384.42 162.72 1382.79 170.784 1379.53 178.272C1376.26 185.76 1371.85 192.288 1366.28 197.856C1360.71 203.424 1354.18 207.84 1346.69 211.104C1339.21 214.368 1331.14 216 1322.5 216H1291.4C1282.76 216 1274.69 214.368 1267.21 211.104C1259.72 207.84 1253.19 203.424 1247.62 197.856C1242.05 192.288 1237.64 185.76 1234.37 178.272C1231.11 170.784 1229.48 162.72 1229.48 154.08V76.32C1229.48 67.68 1231.11 59.616 1234.37 52.128C1237.64 44.64 1242.05 38.112 1247.62 32.544C1253.19 26.976 1259.72 22.56 1267.21 19.296C1274.69 16.032 1282.76 14.4 1291.4 14.4H1322.5ZM1338.05 76.32C1338.05 72.096 1336.52 68.544 1333.45 65.664C1330.57 62.592 1326.92 61.056 1322.5 61.056H1291.4C1286.98 61.056 1283.24 62.592 1280.17 65.664C1277.29 68.544 1275.85 72.096 1275.85 76.32V154.08C1275.85 158.304 1277.29 161.952 1280.17 165.024C1283.24 168.096 1286.98 169.632 1291.4 169.632H1322.5C1326.92 169.632 1330.57 168.096 1333.45 165.024C1336.52 161.952 1338.05 158.304 1338.05 154.08V76.32Z" fill="white"/>
</svg>
