<svg width="400" height="400" viewBox="0 0 400 400" fill="none" xmlns="http://www.w3.org/2000/svg">
<g filter="url(#filter0_i_109_2)">
<path d="M193.031 370.345C191.303 370.51 189.662 369.852 188.539 368.618L84.705 277.994C81.9407 275.938 81.5088 272.155 83.6684 269.524C83.8411 269.359 84.0139 269.112 84.1867 268.948C86.3463 266.316 90.3199 265.905 93.0842 267.961C93.257 268.126 93.5161 268.29 93.6889 268.454L192.512 354.803L329.777 223.882C347.312 207.271 357.16 184.738 357.333 161.136C357.16 112.041 315.178 72.3205 263.606 72.485C238.987 72.5673 215.49 81.86 198.041 98.3895H197.609C195.104 100.939 190.871 101.186 188.107 98.8007H187.675C151.825 64.1791 93.257 63.768 56.8029 97.8961C56.4574 98.225 56.1982 98.4717 55.8527 98.8007C34.3431 119.278 24.7544 148.472 30.1102 177.008C30.6285 180.461 28.2962 183.669 24.6681 184.327C20.9535 184.902 17.4118 182.6 16.5479 179.146C6.0091 123.801 44.6228 70.8403 102.759 60.8897C135.153 55.2976 168.411 64.2614 193.031 85.1494C238.209 48.8832 308.267 51.9259 346.362 94.8533C381.434 134.491 377.115 195.264 339.711 232.928L197.523 368.618C196.313 369.852 194.672 370.428 193.031 370.345Z" fill="#F0EEEF" stroke="#F0EEEF"/>
<path d="M129.758 122.606C130.28 120.866 131.84 119.643 133.721 119.584C135.81 119.521 137.705 120.651 138.562 122.44L194.047 256.029L195.62 259.816L198.266 256.683L235.394 212.72L235.495 212.601L235.58 212.469C236.313 211.342 237.458 210.744 238.748 210.744H267.657C270.247 210.744 272.361 212.857 272.361 215.448C272.361 218.039 270.247 220.152 267.657 220.152H242.073H240.9L240.15 221.055L197.665 272.222L197.656 272.232L197.648 272.242C196.938 273.116 195.721 273.72 194.416 273.72H193.593C192.027 273.576 190.582 272.476 190.007 270.982L189.995 270.951L189.982 270.92L136.876 143.095L134.422 137.189L132.22 143.193L105.159 216.988L105.154 217.001L105.15 217.013C104.479 218.903 102.728 220.152 100.764 220.152H7.20401C4.61328 220.152 2.5 218.039 2.5 215.448C2.5 212.857 4.61328 210.744 7.20401 210.744H95.4993H97.2416L97.8448 209.109L129.709 122.753L129.736 122.681L129.758 122.606Z" fill="#F0EEEF" stroke="#F0EEEF" stroke-width="5"/>
</g>
<defs>
<filter id="filter0_i_109_2" x="0" y="0" width="403" height="403" filterUnits="userSpaceOnUse" color-interpolation-filters="sRGB">
<feFlood flood-opacity="0" result="BackgroundImageFix"/>
<feBlend mode="normal" in="SourceGraphic" in2="BackgroundImageFix" result="shape"/>
<feColorMatrix in="SourceAlpha" type="matrix" values="0 0 0 0 0 0 0 0 0 0 0 0 0 0 0 0 0 0 127 0" result="hardAlpha"/>
<feOffset dx="3" dy="5"/>
<feGaussianBlur stdDeviation="1.5"/>
<feComposite in2="hardAlpha" operator="arithmetic" k2="-1" k3="1"/>
<feColorMatrix type="matrix" values="0 0 0 0 0.109804 0 0 0 0 0.368627 0 0 0 0 0.329412 0 0 0 0.4 0"/>
<feBlend mode="normal" in2="shape" result="effect1_innerShadow_109_2"/>
</filter>
</defs>
</svg>
