<svg width="494" height="200" viewBox="0 0 494 200" fill="none" xmlns="http://www.w3.org/2000/svg">
<g filter="url(#filter0_i_3_17)">
<path d="M76.8 89.72C57.7707 91.4267 41.984 92.28 29.44 92.28C21.0773 92.28 14.9333 90.3173 11.008 86.392C7.08267 82.4667 5.12 76.3227 5.12 67.96V27C5.12 18.04 7.12533 11.5547 11.136 7.544C15.232 3.448 21.76 1.39999 30.72 1.39999H76.8V19.32H35.84C30.72 19.32 28.16 21.88 28.16 27V67.96C28.16 69.9227 28.7147 71.5013 29.824 72.696C31.0187 73.8053 32.512 74.36 34.304 74.36C36.096 74.36 38.0587 74.36 40.192 74.36C42.3253 74.2747 44.544 74.1893 46.848 74.104C49.152 74.0187 51.456 73.9333 53.76 73.848C56.1493 73.7627 59.1787 73.592 62.848 73.336C66.6027 73.08 71.2533 72.7813 76.8 72.44V89.72ZM103.055 91H78.095L112.015 1.39999H137.615L171.535 91H146.575L140.815 75H108.815L103.055 91ZM114.575 58.36H135.055L124.815 28.28L114.575 58.36ZM177.93 1.39999H231.69C240.65 1.39999 247.135 3.448 251.146 7.544C255.242 11.5547 257.29 18.04 257.29 27V38.52C257.29 45.6027 256.095 51.1067 253.706 55.032C251.402 58.9573 247.69 61.56 242.57 62.84L258.57 91H233.61L218.89 64.12H200.97V91H177.93V1.39999ZM234.25 27C234.25 21.88 231.69 19.32 226.57 19.32H200.97V46.2H226.57C231.69 46.2 234.25 43.64 234.25 38.52V27ZM341.095 91H270.055V1.39999H341.095V19.32H293.095V36.6H330.855V54.52H293.095V73.08H341.095V91ZM84.48 189.08C64.512 191.213 46.1653 192.28 29.44 192.28C21.0773 192.28 14.9333 190.317 11.008 186.392C7.08267 182.467 5.12 176.323 5.12 167.96V127C5.12 118.04 7.12533 111.555 11.136 107.544C15.232 103.448 21.76 101.4 30.72 101.4H76.8V119.32H35.84C30.72 119.32 28.16 121.88 28.16 127V167.96C28.16 169.923 28.7147 171.501 29.824 172.696C31.0187 173.805 32.5973 174.36 34.56 174.36C44.3733 174.36 53.3333 174.147 61.44 173.72V155.16H44.8V139.8H84.48V189.08ZM139.545 191H93.465V173.08H104.985V119.32H93.465V101.4H139.545V119.32H128.025V173.08H139.545V191ZM188.815 164.12L210.575 101.4H235.535L201.615 191H176.015L142.095 101.4H167.055L188.815 164.12ZM312.97 191H241.93V101.4H312.97V119.32H264.97V136.6H302.73V154.52H264.97V173.08H312.97V191ZM323.18 101.4H376.94C385.9 101.4 392.385 103.448 396.396 107.544C400.492 111.555 402.54 118.04 402.54 127V138.52C402.54 145.603 401.345 151.107 398.956 155.032C396.652 158.957 392.94 161.56 387.82 162.84L403.82 191H378.86L364.14 164.12H346.22V191H323.18V101.4ZM379.5 127C379.5 121.88 376.94 119.32 371.82 119.32H346.22V146.2H371.82C376.94 146.2 379.5 143.64 379.5 138.52V127ZM412.617 172.44C435.998 173.72 451.828 174.36 460.105 174.36C462.068 174.36 463.604 173.805 464.713 172.696C465.908 171.501 466.505 169.923 466.505 167.96V156.44H437.065C428.105 156.44 421.577 154.435 417.481 150.424C413.47 146.328 411.465 139.8 411.465 130.84V127C411.465 118.04 413.47 111.555 417.481 107.544C421.577 103.448 428.105 101.4 437.065 101.4H481.993V119.32H442.185C437.065 119.32 434.505 121.88 434.505 127V129.56C434.505 134.68 437.065 137.24 442.185 137.24H465.225C473.588 137.24 479.732 139.203 483.657 143.128C487.582 147.053 489.545 153.197 489.545 161.56V167.96C489.545 176.323 487.582 182.467 483.657 186.392C479.732 190.317 473.588 192.28 465.225 192.28C460.873 192.28 456.265 192.195 451.401 192.024L439.625 191.512C430.921 191.085 421.918 190.488 412.617 189.72V172.44Z" fill="#F0EEEF"/>
</g>
<defs>
<filter id="filter0_i_3_17" x="5.12" y="1.39999" width="487.425" height="193.88" filterUnits="userSpaceOnUse" color-interpolation-filters="sRGB">
<feFlood flood-opacity="0" result="BackgroundImageFix"/>
<feBlend mode="normal" in="SourceGraphic" in2="BackgroundImageFix" result="shape"/>
<feColorMatrix in="SourceAlpha" type="matrix" values="0 0 0 0 0 0 0 0 0 0 0 0 0 0 0 0 0 0 127 0" result="hardAlpha"/>
<feOffset dx="3" dy="5"/>
<feGaussianBlur stdDeviation="1.5"/>
<feComposite in2="hardAlpha" operator="arithmetic" k2="-1" k3="1"/>
<feColorMatrix type="matrix" values="0 0 0 0 0.109804 0 0 0 0 0.368627 0 0 0 0 0.329412 0 0 0 0.3 0"/>
<feBlend mode="normal" in2="shape" result="effect1_innerShadow_3_17"/>
</filter>
</defs>
</svg>
